<svg width="654" height="686" viewBox="0 0 654 686" fill="currentColor" xmlns="http://www.w3.org/2000/svg">
<path d="M387.403 627.925C410.772 628.797 413.048 629.122 415.148 631.89C417.084 634.443 417.331 637.973 416.749 654.931C416.372 665.945 415.661 675.392 415.168 675.925C413.037 678.234 367.664 686 356.308 686H352.012L352.111 638.028L361.946 626.974L387.403 627.925Z" fill="currentColor"/>
<path d="M298.858 626.45L309.053 637.067L307.083 685.662L301.278 684.98C282.595 682.784 242.507 674.141 238.546 671.455C237.803 670.951 236.839 664.126 236.401 656.287L235.603 642.036L252.471 625.284L298.858 626.45Z" fill="currentColor"/>
<path d="M497.819 632.138C498.291 634.098 498.462 636.848 498.199 638.248C497.592 641.468 476.047 653.535 454.582 662.676L438.317 669.602L437.48 653.137C436.848 640.719 437.118 635.676 438.577 632.622L440.512 628.573H496.958L497.819 632.138Z" fill="currentColor"/>
<path d="M170.976 627.1C187.607 627.1 190.83 627.503 196.308 630.274C199.758 632.019 203.276 635.034 204.123 636.97C206.237 641.799 206.152 658.019 204.015 658.022C200.227 658.022 151.924 630.05 151.92 627.854C151.92 627.44 160.496 627.1 170.976 627.1Z" fill="currentColor"/>
<path d="M420.875 559.563L419.865 582.198C418.472 613.398 420.096 611.958 385.585 612.6L359.724 613.08L351.157 599.367L352.162 577.824C353.138 556.933 353.294 556.115 357.319 550.828C359.602 547.83 362.531 544.925 363.828 544.375C365.129 543.824 375.819 543.329 387.587 543.271L408.985 543.168L420.875 559.563Z" fill="currentColor"/>
<path d="M566.556 540.545C569.442 540.299 571.531 541.676 575.396 546.378C579.849 551.795 580.456 553.488 580.456 560.507V568.481L559.45 590.263C539.078 611.389 538.248 612.06 531.834 612.591C525.678 613.101 524.83 612.725 519.601 607.18L513.984 601.219V551.107L523.225 541.781L543.001 541.326C553.877 541.074 564.475 540.723 566.556 540.545Z" fill="currentColor"/>
<path d="M471.298 544.106C484.898 545.941 496.515 547.972 497.119 548.618C497.72 549.265 498.382 562.469 498.592 577.961C498.938 603.687 498.745 606.363 496.361 608.845C493.978 611.326 491.473 611.523 467.449 611.106C445.987 610.735 440.691 610.225 438.671 608.338C436.479 606.292 436.196 602.833 436.196 578.067V550.107L446.57 540.77L471.298 544.106Z" fill="currentColor"/>
<path d="M143.271 541.696C153.003 541.696 168.214 542.433 177.076 543.333C192.993 544.951 193.247 545.036 197.974 550.326L202.759 555.684L202.798 578.768C202.849 609.499 205.875 607.176 164.102 608.479C146.58 609.027 131.416 609.804 130.406 610.208C129.394 610.61 126.184 608.897 123.272 606.398L117.977 601.853V549.954L121.777 545.825C125.545 541.73 125.732 541.696 143.271 541.696Z" fill="currentColor"/>
<path d="M253.744 542.703C260.36 542.39 269.526 542.366 274.113 542.65C278.699 542.934 286.655 543.209 291.791 543.259L301.13 543.35L310.275 556.41L309.381 578.97C308.146 610.129 309.128 609.034 282.037 609.486C270.758 609.675 257.075 609.728 251.63 609.603L241.729 609.376L237.272 602.277C232.899 595.31 232.837 594.97 234.026 584.265C234.694 578.265 235.268 568.757 235.302 563.138C235.352 555.035 236.022 551.922 238.541 548.095C241.645 543.381 241.987 543.259 253.744 542.703Z" fill="currentColor"/>
<path d="M79.4369 541.712C93.208 541.726 93.2332 541.733 97.824 546.653L102.42 551.58V586.495L95.222 579.188C88.5234 572.387 65.6482 543.918 65.6482 542.382C65.6542 542.004 71.8558 541.703 79.4369 541.712Z" fill="currentColor"/>
<path d="M255.872 458.471C260.539 458.917 272.973 459.696 283.503 460.201C301.664 461.072 302.885 461.326 307.278 465.144L311.907 469.168L313.566 511.799L301.497 528.443H244.433L233.765 516.72L235.751 470.28L247.386 457.66L255.872 458.471Z" fill="currentColor"/>
<path d="M100.13 462.818C103.807 467.836 103.835 468.069 103.835 494.201V520.529L96.0554 527.883L53.7916 524.761L43.0485 507.092L43.0659 486.477C43.0801 469.195 43.4767 465.337 45.5246 462.615C48.257 458.987 51.9273 458.499 79.9768 458.035L96.4279 457.763L100.13 462.818Z" fill="currentColor"/>
<path d="M191.673 459.082L200.728 467.319L200.623 516.708L190.814 526.732L126.382 527.707L122.764 522.895C119.284 518.265 119.118 517.11 118.347 492.286L117.546 466.492L125.107 458.274L191.673 459.082Z" fill="currentColor"/>
<path d="M470.847 462.18C472.091 460.082 471.89 460.016 487.271 467.63L501.255 474.554L501.242 489.349C501.221 514.626 500.426 518.19 493.708 523.133L487.917 527.394L445.425 525.398L436.196 516.086V463.653H453.086C462.818 463.653 470.343 463.028 470.847 462.18Z" fill="currentColor"/>
<path d="M392.018 461.913C413.654 462.34 415.877 462.631 417.872 465.302C419.588 467.598 420.13 473.142 420.405 491.175C420.747 513.708 420.687 514.224 417.114 519.592L413.475 525.06L399.732 526.007C375.206 527.699 366.989 527.27 361.973 524.042L357.422 521.114L357.844 475.79L368.348 461.444L392.018 461.913Z" fill="currentColor"/>
<path d="M520.207 485.592C522.619 487.112 534.456 494.619 546.512 502.273C580.832 524.064 581.778 524.697 581.825 525.866C581.847 526.474 568.981 526.942 553.231 526.906L524.591 526.845L513.955 512.479L515.821 482.827L520.207 485.592Z" fill="currentColor"/>
<path d="M633.351 472.119C628.135 486.722 621.663 500.792 620.428 500.212C619.835 499.932 614.1 496.885 607.682 493.441L596.014 487.181V478.468C596.014 470.396 596.35 469.479 600.61 465.985C604.918 462.449 606.199 462.21 621.054 462.196L636.902 462.18L633.351 472.119Z" fill="currentColor"/>
<path d="M556.562 463.248C564.23 461.74 572.233 462.292 575.556 464.558C578.147 466.325 579.042 468.242 579.042 472.02C579.042 476.614 578.735 477.005 575.86 476.08C574.11 475.517 568.289 472.551 562.926 469.486C554.587 464.721 553.665 463.818 556.562 463.248Z" fill="currentColor"/>
<path d="M544.951 370.088C567.727 371.022 568.251 371.118 574.299 375.451L580.456 379.861V429.187L569.313 440.517L521.855 440.064L511.154 429.187V380.8L521.762 369.137L544.951 370.088Z" fill="currentColor"/>
<path d="M626.412 367.94C646.916 367.94 647.983 368.088 650.887 371.307C653.788 374.521 653.859 375.301 652.471 388.609C651.126 401.494 644.946 436.758 643.829 437.923C643.559 438.201 632.96 438.564 620.277 438.727C602.083 438.963 596.856 438.595 595.528 436.983C594.298 435.489 594.042 427.596 594.575 407.698L595.307 380.457L604.973 367.94H626.412Z" fill="currentColor"/>
<path d="M376.639 416.44C384.115 420.341 396.775 426.354 404.771 429.804C412.767 433.254 419.131 436.226 418.913 436.41C418.679 436.593 406.286 437.182 391.36 437.718C359.383 438.866 361.04 439.797 362.255 421.356L363.045 409.349L376.639 416.44Z" fill="currentColor"/>
<path fill-rule="evenodd" clip-rule="evenodd" d="M266.816 4.17436C293.498 -0.511125 326.625 -1.3029 355.501 2.05587C375.415 4.37206 380.503 6.30254 381.669 11.9833C382.041 13.7944 382.999 27.2042 383.797 41.7817C385.224 67.8846 387.496 81.995 396.838 122.77C400.908 140.532 403.212 145.726 413.173 159.582C424.854 175.831 436.216 187.488 450.356 197.722C462.71 206.664 471.751 216.088 482.9 231.644C489.287 240.559 489.306 240.571 498.206 241.596C510.165 242.974 517.633 247.769 525.112 258.868C530.719 267.192 531.515 267.81 536.615 267.81C539.629 267.81 546.429 266.756 551.729 265.468C557.028 264.18 563.981 263.425 567.179 263.792C572.713 264.425 588.942 273.155 588.942 275.496C588.941 276.106 586.453 278.319 583.411 280.415C579.468 283.132 575.101 284.511 568.206 285.221C559.875 286.078 558.534 286.616 558.534 289.097C558.534 291.228 560.127 292.457 564.656 293.822C572.034 296.047 579.683 294.783 593.892 288.99C602.823 285.349 605.955 284.892 625.897 284.331L648.003 283.707L649.549 293.061C652.281 309.591 653.977 328.557 653.989 342.761L654 356.601L641.054 355.645C633.934 355.118 618.44 354.687 606.625 354.687H585.14L584.191 332.969C582.882 303.025 580.354 293.072 575.191 297.532C573.758 298.771 573.569 304.919 574.306 326.163L575.243 353.215H534.006C495.671 353.215 492.771 353.034 492.782 350.638C492.799 347.151 496.903 312.655 498.14 305.583L499.133 299.916L508.078 310.001C512.996 315.546 519.749 323.185 523.083 326.975C531.944 337.044 542.27 343.042 542.27 338.118C542.27 337.102 537.888 331.202 532.534 325.004C527.18 318.805 519.463 307.542 515.384 299.975C504.996 280.7 499.122 272.776 492.002 268.434C487.031 265.399 485.294 264.986 482.961 266.286C478.465 268.792 477.924 274.333 481.285 283.474C484.933 293.404 485.25 309.467 482.181 328.92C481.03 336.208 480.078 344.585 480.064 347.534C480.031 354.604 477.999 355.077 453.111 353.794L433.487 352.782L433.517 328.551C433.534 315.223 433.236 303.996 432.857 303.6C431.323 302.003 426.624 304.91 425.097 308.401C424.2 310.449 423.464 318.885 423.46 327.148C423.455 335.412 422.816 344.558 422.037 347.475L420.622 352.781L407.594 353.66C400.429 354.143 394.26 354.219 393.887 353.831C393.514 353.436 392.766 341.71 392.226 327.769C391.654 313.012 390.383 299.337 389.184 295.052C384.368 277.853 369.675 254.19 357.875 244.629C349.005 237.443 344.603 235.416 337.876 235.416C327.925 235.416 323.496 239.86 317.426 255.928C315.765 260.327 310.954 269.328 306.734 275.93C296.312 292.238 294.633 296.959 294.515 310.286C294.384 325.238 297.589 338.497 306.136 358.369C308.226 363.228 310.422 368.861 311.017 370.886C311.611 372.911 313.532 377.217 315.286 380.457C318.078 385.618 318.333 387.441 317.345 395.182C316.726 400.041 316.166 409.027 316.099 415.153C315.99 425.319 315.641 426.621 312.092 430.092L308.202 433.895L234.593 435.096L234.226 404.809C233.929 380.237 234.247 373.97 235.909 371.599C237.782 368.931 239.939 368.635 260.705 368.207C273.21 367.949 283.442 367.618 283.45 367.471C283.448 365.945 276.702 349.148 273.459 342.589C268.136 331.821 265.113 318.4 265.086 305.412C265.068 296.359 265.989 292.77 272.945 274.785C282.191 250.876 283.051 246.682 280.173 239.51C275.944 228.974 263.643 225.652 253.36 232.268C247.892 235.787 245.163 241.492 242.482 255.014C240.122 266.919 227.402 286.222 209.685 304.784C196.959 318.117 195.793 319.78 198.004 321.463C200.171 323.114 200.35 325.092 199.517 338.311C198.999 346.545 197.783 354.652 196.815 356.325C195.246 359.037 194.222 359.25 187.278 358.309C183 357.729 166.788 357.062 151.25 356.827C124.127 356.42 122.899 356.273 120.489 353.172C117.538 349.378 117.235 340.431 119.53 324.785C120.824 315.969 122.056 312.875 126.883 306.316C133.929 296.744 137.243 295.254 149.017 296.352C157.973 297.189 158.325 297.082 168.817 290.364C191.341 275.945 209.902 263.024 209.907 261.761C209.907 259.465 204.346 254.557 201.776 254.587C200.415 254.602 195.163 257.244 190.107 260.456C185.05 263.668 174.812 269.513 167.354 273.446C154.91 280.009 152.29 280.801 135.532 283.076L117.27 285.553L105.631 299.202L103.981 318.023C101.797 342.906 100.239 347.489 93.0969 350.023C86.9814 352.193 56.6911 354.15 51.2432 352.726C49.341 352.23 46.4745 350.64 44.8734 349.195C42.199 346.781 42.0202 345.374 42.668 331.853C43.3228 318.211 43.7403 316.516 48.3933 308.595C53.0775 300.622 64.0747 289.363 73.0725 283.332C79.1116 279.284 77.9249 277.605 69.8152 278.726C61.1168 279.927 38.5274 292.118 32.1433 299.053L27.6949 303.886L27.2259 324.754C26.7804 344.475 26.5657 345.828 23.3255 349.418C20.3034 352.765 18.7755 353.215 10.4399 353.215H0.983092L0.219363 344.452C-0.200687 339.631 0.00066728 326.874 0.668221 316.105C1.33577 305.336 1.9085 295.034 1.94244 293.211C1.99339 290.44 2.78747 289.898 6.79816 289.898C14.8512 289.898 34.717 285.439 40.8042 282.266C43.9666 280.615 48.1463 277.748 50.0909 275.893C52.036 274.037 58.5496 268.866 64.5656 264.402C78.9406 253.735 84.956 252.342 103.87 255.301C128.156 259.098 130.151 258.534 151.217 241.91C156.663 237.612 166.846 231.366 173.846 228.034C200.479 215.348 201.09 214.855 216.639 193.45C228.576 177.017 231.332 171.282 238.692 147.558C247.694 118.535 252.122 86.1552 255.913 21.6452L256.837 5.92681L266.816 4.17436ZM296.222 376.775C295.65 376.776 295.479 380.256 295.846 384.506C296.656 393.924 299.017 397.462 298.989 389.218C298.966 382.435 297.709 376.775 296.222 376.775ZM286.28 342.172C285.353 339.925 285.041 340.799 284.966 345.853C284.899 350.303 286.24 355.501 289.048 361.683C293.297 371.031 295.195 372.733 296.73 368.57C297.704 365.929 295.831 361.701 291.019 355.678C289.191 353.39 287.648 350.077 287.595 348.316C287.539 346.556 286.949 343.792 286.28 342.172ZM395.546 230.998C392.284 230.998 392.156 231.325 393.095 237.256C394.58 246.625 400.604 265.834 405.446 276.645C407.805 281.909 411.229 291.517 413.057 297.996L416.38 309.777L415.854 292.107C415.465 279.026 414.571 272.238 412.404 265.969C410.795 261.313 410.106 257.505 410.871 257.504C413.513 257.504 460.949 306.286 463.967 312.107C466.346 316.697 467.182 317.407 467.905 315.447C469.211 311.901 462.151 298.105 454.503 289.255C450.959 285.154 445.129 277.824 441.548 272.965C429.523 256.648 401.407 230.998 395.546 230.998ZM466.382 237.326C464.704 236.187 462.979 235.847 462.55 236.568C460.794 239.528 472.924 248.899 487.385 255.758C495.664 259.683 503.923 263.886 505.736 265.095C507.551 266.306 510.027 267.674 511.242 268.136C512.455 268.599 514.211 271.632 515.146 274.877C516.994 281.299 521.679 288.256 523.138 286.744C523.639 286.224 523.057 283.327 521.845 280.305C519.041 273.318 519.002 273.46 523.183 275.444C525.131 276.367 527.104 276.729 527.567 276.247C529.211 274.536 526.355 272.026 518.804 268.549C514.599 266.612 511.156 264.354 511.154 263.529C511.154 260.832 493.917 249.769 481.545 244.527C474.884 241.704 468.06 238.464 466.382 237.326ZM151.893 255.663C151.94 253.767 148.785 254.587 136.242 259.732C126.624 263.677 120.783 265.01 108.144 266.141C92.8225 267.512 88.4301 268.912 90.1867 271.872C91.4072 273.923 121.486 275.38 126.105 273.612C130.889 271.78 151.854 257.189 151.893 255.663ZM171.019 256.023C172.296 253.872 171.437 254.262 167.477 257.634C164.431 260.228 164.372 260.427 167.045 259.067C168.752 258.198 170.541 256.829 171.019 256.023ZM343.736 150.747C340.717 130.081 340.447 129.134 339.535 136.023C338.562 143.371 340.397 165.599 343.241 180.933C344.067 185.388 344.796 192.345 344.86 196.394C344.922 200.444 345.611 203.937 346.389 204.156C348.316 204.694 349.599 186.037 348.137 178.725C347.489 175.486 345.509 162.895 343.736 150.747ZM359.515 93.6888C356.477 78.7878 354.99 75.3862 353.399 79.6987C353.027 80.7118 353.32 87.5035 354.051 94.7923C355.068 104.92 354.878 111.645 353.243 123.313C351.542 135.471 351.417 140.993 352.638 150.434C354.929 168.15 356.179 168.23 357.583 150.747C358.104 144.268 359.457 134.785 360.59 129.672C363.406 116.981 363.258 112.038 359.515 93.6888ZM292.475 75.1332C291.54 70.271 289.549 69.0558 288.259 72.5589C287.841 73.6945 288.179 78.4542 289.011 83.1379C289.843 87.8207 290.575 97.6596 290.639 105.003C290.753 118.309 290.761 118.335 292.93 113.198C294.63 109.172 294.915 104.949 294.235 93.9074C293.757 86.1315 292.964 77.6826 292.475 75.1332Z" fill="currentColor"/>
<path d="M41.8855 400.33C41.4131 367.036 39.1472 369.412 71.3735 369.412C94.7798 369.412 94.8666 369.425 98.2849 373.21C101.559 376.833 101.732 378.027 102.165 399.689L102.618 422.375L93.2269 434.15L70.8831 434.177C40.8536 434.212 42.3904 436.006 41.8855 400.33Z" fill="currentColor"/>
<path d="M9.92811 368.712C16.0389 369.472 19.3075 370.76 22.1572 373.537L26.0468 377.326V402.563C26.0468 427.34 25.9847 427.86 22.6315 431.14C17.4877 436.171 13.9276 434.209 11.3578 424.928C8.21375 413.572 3.67579 389.221 2.56415 377.747L1.58604 367.673L9.92811 368.712Z" fill="currentColor"/>
<path d="M181.004 369.738C191.808 369.43 192.603 369.626 196.16 373.491C199.813 377.462 199.933 378.182 200.645 400.365L201.375 423.159L186.571 433.506L131.633 433.344L120.173 419.271L119.277 380.457L127.77 370.965L148.684 370.514C160.187 370.267 174.731 369.918 181.004 369.738Z" fill="currentColor"/>
<path d="M499.841 380.349V390.116C499.841 395.488 500.233 405.782 500.713 412.993L501.586 426.104L492.649 431.498L478.92 423.442C471.367 419.011 458.601 411.96 450.548 407.772L435.906 400.156L436.421 388.313C436.905 377.22 437.206 376.244 441.163 372.947C445.174 369.607 446.416 369.428 465.58 369.42L485.77 369.412L499.841 380.349Z" fill="currentColor"/>
<path d="M387.659 370.748C397.55 369.482 409.743 369.278 414.644 370.299C418.215 371.042 419.043 372.053 419.771 376.558C420.516 381.169 420.106 382.38 416.877 385.117L413.116 388.304L380.842 371.622L387.659 370.748Z" fill="currentColor"/>
<path d="M241.376 341.966C245.459 344.705 252.301 349.051 256.579 351.625L264.359 356.307L255.166 355.347C242.51 354.026 233.956 348.559 233.953 341.789L233.95 336.989L241.376 341.966Z" fill="currentColor"/>
<path d="M367.088 297.26C374.869 297.26 375.388 297.486 376.415 301.309C377.013 303.536 377.503 313.642 377.503 323.765C377.503 339.226 377.05 343.114 374.675 348.061C372.12 353.38 371.264 353.995 365.854 354.403C360.077 354.839 359.709 354.602 355.547 347.777C351.348 340.892 351.238 340.257 351.505 324.502C351.897 301.353 354.238 297.26 367.088 297.26Z" fill="currentColor"/>
<path d="M311.911 307.074C312.396 311.8 313.146 319.475 313.578 324.128C314.33 332.257 314.249 332.527 311.516 331.005C304.4 327.041 301.974 308.539 307.73 302.145L311.031 298.48L311.911 307.074Z" fill="currentColor"/>
<path d="M264.313 239.833C267.884 239.833 269.349 240.593 270.02 242.793C270.63 244.795 269.308 248.44 265.941 254.044C263.201 258.605 258.687 268.372 255.908 275.749C253.129 283.126 249.914 290.451 248.761 292.028C246.695 294.857 246.579 294.851 240.041 291.544L233.415 288.192L237.884 285.248C246.658 279.464 256.579 259.57 256.579 247.762C256.579 242.793 259.466 239.833 264.313 239.833Z" fill="currentColor"/>
</svg>
