<svg width="495" height="203" viewBox="0 0 495 203" fill="currentColor"
 xmlns="http://www.w3.org/2000/svg">
<path d="M453.351 89.2796C454.638 85.5586 458.48 83.2218 462.009 84.0128C469.88 85.7781 487.971 101.298 485.033 103.763C483.748 104.841 481.99 103.728 473.029 96.1605C467.71 91.6696 465.753 90.5582 463.01 90.4741C458.835 90.3451 458.456 91.2748 460.962 95.4909C462.346 97.821 464.896 100.025 469.819 103.15C477.708 108.156 480.132 110.697 481.731 115.636C484.18 123.209 478.564 127.26 466.967 126.286C459.708 125.677 457.484 124.284 459.248 121.45C460.027 120.196 462.206 119.513 466.551 119.16C469.956 118.885 473.158 118.309 473.669 117.882C474.949 116.807 470.025 111.148 465.439 108.421C458.062 104.037 451.72 93.9935 453.351 89.2796ZM420.95 98.3668C420.909 96.322 423.763 93.7811 426.762 93.1906C429.648 92.6231 434.783 95.406 438.062 99.3136C443.29 105.544 448.209 121.432 446.624 126.969C445.34 131.453 442.035 135.229 439.214 135.435C436.795 135.611 434.303 133.893 435.51 132.88C435.849 132.595 434.582 129.681 432.693 126.406C428.873 119.782 421.003 100.991 420.95 98.3668ZM427.679 97.5484C425.982 97.882 425.876 98.4329 426.994 101.081C429.501 107.026 436.29 121.107 438.305 124.544L440.322 127.987L441.065 125.347C441.473 123.894 441.335 119.944 440.758 116.57C438.971 106.125 432.432 96.6138 427.679 97.5484ZM380.72 78.6789C382.218 76.0995 382.857 74.9922 383.816 74.3714C384.545 73.8993 385.46 73.7088 387.079 73.3662C395.52 71.5796 404.433 86.0353 411.401 112.811C414.715 125.547 416.201 134.68 415.108 135.597C414.689 135.949 413.276 135.709 411.967 135.067C409.93 134.067 409.423 132.942 408.44 127.225C407.809 123.554 406.904 118.974 406.429 117.047L405.566 113.543L401.736 114.681C397.555 115.924 395.396 116.564 394.671 117.977C393.896 119.487 394.759 121.882 396.541 126.844C398.248 131.592 399.394 135.687 399.09 135.944C397.927 136.92 395.133 135.987 393.566 134.098C392.668 133.015 389.852 126.959 387.309 120.638C378.588 98.9551 376.536 85.8884 380.72 78.6789ZM391.323 80.7711C388.829 79.1592 386.176 82.0542 385.471 87.1583C384.77 92.2347 390.462 112.279 392.66 112.479C393.358 112.541 396.303 111.82 399.205 110.877L404.482 109.161L403.091 104.763C399.796 94.3291 393.991 82.4962 391.323 80.7711ZM298.634 88.6173C299.505 85.171 303.371 82.2458 307.142 82.1818C314.702 82.0535 324.151 91.2813 326.544 101.133C327.165 103.689 327.861 105.786 328.09 105.794C328.319 105.8 330.036 105.47 331.906 105.06C334.048 104.592 336.378 104.998 338.206 106.16C343.717 109.666 351.518 117.469 355.248 123.206C359.039 129.036 359.792 130.951 358.667 131.894C357.417 132.942 353.962 129.837 346.128 120.625C339.33 112.63 337.856 111.289 335.46 110.92C332.359 110.443 329.501 112.353 328.503 115.57C327.911 117.479 328.426 118.302 333.529 123.602C339.635 129.942 340.472 132.58 335.9 131.073C334.494 130.609 328.676 126.487 322.971 121.912C305.776 108.121 296.806 95.8507 298.634 88.6173ZM344.506 93.3681C343.165 86.9088 344.318 80.7413 347.094 79.528C348.127 79.0764 350.317 78.6037 351.958 78.4778C359.362 77.9123 367.819 85.5729 372.576 97.1576C377.681 109.587 375.413 117.06 366.89 115.892C361.754 115.188 355.788 111.064 350.164 104.332C346.461 99.8978 345.458 97.9556 344.506 93.3681ZM356.171 84.9747C352.966 83.144 349.992 85.6729 349.831 90.3681C349.683 94.663 351.924 98.7992 357.174 103.918C361.07 107.717 365.922 110.093 367.347 108.899C371.179 105.683 363.448 89.1338 356.171 84.9747ZM319.992 99.8229C316.898 90.0971 304.61 83.8529 304.472 91.9367C304.41 95.5405 308.924 102.009 315.326 107.492C318.473 110.187 321.251 112.218 321.5 112.008C322.137 111.461 321.146 103.452 319.992 99.8229Z" fill="currentColor"/>
<path d="M238.099 80.0582C243.134 78.6855 243.322 78.6816 247.429 79.8531C255.471 82.1471 258.064 89.9939 253.362 97.8053L251.109 101.548L256.855 107.709L258.108 104.56C258.797 102.828 260.034 101.411 260.858 101.411C262.641 101.411 262.8 104.418 261.208 108.006C260.212 110.251 260.364 110.844 262.367 112.509C265.138 114.813 264.293 117.4 261.305 115.757C259.685 114.867 258.685 115.44 255.038 119.349C251.278 123.378 250.152 124 246.615 124C238.548 124 234.907 114.988 239.355 106.031C240.455 103.816 241.355 101.663 241.355 101.246C241.355 100.829 240.021 98.4568 238.39 95.9762C232.089 86.3893 232.003 81.7205 238.099 80.0582ZM244.437 108.48C243.292 110.131 242.355 112.417 242.355 113.56C242.355 115.931 244.841 118.866 246.85 118.866C248.402 118.865 254.355 113.975 254.355 112.7C254.355 112.232 252.592 110.417 250.437 108.665L246.519 105.479L244.437 108.48ZM244.014 92.1695C244.989 93.8637 246.084 95.2506 246.448 95.2506C247.828 95.2506 249.555 92.1309 248.998 90.6432C248.654 89.7201 247.164 89.0895 245.33 89.0895H242.242L244.014 92.1695Z" fill="currentColor"/>
<path d="M32.5144 90.9948C35.2916 92.7302 35.6954 93.4713 35.218 95.9523C34.9092 97.5562 32.745 101.552 30.4083 104.831L26.1587 110.791L29.3381 112.778C32.6641 114.856 38.5653 123.943 39.9081 129.056C40.6826 132.006 38.7387 135.001 36.3477 134.542C35.6554 134.41 33.9424 131.708 32.5421 128.541C29.9855 122.759 26.1587 118.278 23.3149 117.732C20.7276 117.236 16.4188 119.829 13.7414 123.493C12.3379 125.414 10.8521 127.446 10.4411 128.006C10.0303 128.566 8.96693 128.57 8.07743 128.014C6.87021 127.259 6.79739 125.033 7.7878 119.217C9.78469 107.484 11.0678 104.153 15.8118 98.3838C23.0973 89.5231 27.2319 87.694 32.5144 90.9948ZM60.2579 87.2381C63.6365 86.9168 69.1842 91.0101 71.0259 95.1827C74.4431 102.924 72.911 111.961 66.7969 120.141C59.9985 129.236 52.399 132.702 48.4537 128.507C46.154 126.059 44.2541 115.327 45.0323 109.172C46.2058 99.8869 54.6141 87.7748 60.2579 87.2381ZM29.4449 95.0188C28.7529 94.5863 27.293 94.5328 26.1998 94.8991C23.8561 95.6854 16.8578 105.11 16.731 107.651C16.6544 109.204 16.9382 109.391 19.1147 109.221C21.1454 109.064 22.3991 107.851 26.1447 102.418C29.8852 96.9919 30.4775 95.6642 29.4449 95.0188ZM66.1096 108.303C67.6028 102.139 65.1891 95.6582 60.8273 94.1185C58.4884 93.2928 55.611 96.9413 52.978 104.069C48.9061 115.095 49.3044 121.883 54.0783 122.799C57.4708 123.45 64.4893 114.994 66.1096 108.303ZM100.06 72.1555C106.291 68.1561 114.141 70.8044 117.267 77.9603C119.499 83.0714 119.454 88.3285 117.113 95.75C113.769 106.35 105.968 116.596 97.1203 122.007C90.9059 125.807 87.1787 124.777 84.053 118.392C78.5582 107.166 87.9986 79.8962 100.06 72.1555ZM108.838 78.0805C107.546 77.273 105.374 76.9322 104.013 77.3249C102.394 77.7914 101.731 78.4277 102.092 79.1654C102.395 79.7854 102.282 80.8688 101.842 81.5738C101.401 82.2786 100.834 82.4338 100.583 81.9177C99.2095 79.1145 91.4701 91.2409 90.0206 98.4649C88.7425 104.839 89.2237 112.17 90.9919 113.275C91.6929 113.712 94.4397 112.641 97.1352 110.876C108.399 103.504 115.897 82.4916 108.838 78.0805ZM144.197 62.2825C158.029 59.8966 174.756 63.0151 171.977 67.4618C170.433 69.9335 165.171 71.4016 160.116 70.7721C157.593 70.4572 153.897 70.4324 151.905 70.7174L148.283 71.2361L145.936 78.0882C144.646 81.8572 141.781 89.4255 139.569 94.9064C137.358 100.388 133.873 109.708 131.825 115.618C128.073 126.449 125.177 131.072 122.995 129.709C121.183 128.576 122.075 123.004 125.189 115.998C126.738 112.515 129.884 104.155 132.181 97.4201C134.477 90.6847 137.186 83.2861 138.199 80.978C141.834 72.6935 141.804 72.6124 135.799 74.5038C130.422 76.1975 130.408 76.1952 129.933 73.4762C129.514 71.0853 129.772 70.5497 132.043 69.1053C133.466 68.2 135.058 66.5916 135.578 65.5324C136.237 64.1936 138.865 63.2013 144.197 62.2825ZM186.892 70.4145C191.48 71.0879 193.162 72.1387 195.202 75.6063C197.148 78.9126 197.124 86.4346 195.15 92.8156C193.693 97.5205 186.449 107.546 186.069 105.382C185.863 104.207 186.867 99.5899 189.63 88.9958C190.481 85.7391 190.91 82.1231 190.584 80.9586C190.061 79.088 189.629 78.8841 186.853 79.1958C183.182 79.6079 179.297 82.8231 173.651 90.1222L169.589 95.3717L170.534 101.572C172.239 112.777 167.47 123.705 158.148 129.951C149.086 136.023 146.298 135.919 144.228 129.433C141.945 122.28 145.31 108.595 148.814 110.785C149.824 111.416 150.192 114.07 149.883 118.51C149.625 122.23 149.777 125.7 150.22 126.222C151.566 127.803 156.241 124.906 159.856 120.253C163.153 116.01 163.226 115.708 161.96 111.433C159.974 104.727 163.115 90.5994 168.437 82.3036C172.657 75.7261 182.013 69.6981 186.892 70.4145Z" fill="currentColor"/>
</svg>
