<svg width="484" height="488" viewBox="0 0 484 488" fill="none" xmlns="http://www.w3.org/2000/svg">
<ellipse cx="243" cy="244.5" rx="235" ry="236.5" fill="white"/>
<path fill-rule="evenodd" clip-rule="evenodd" d="M211.261 0.713818C167.799 5.70482 127.53 21.5288 93.763 46.8838C51.316 78.7568 21.285 123.637 7.202 176.246C1.206 198.647 0 208.935 0 237.699C0 264.565 0.657997 271.42 5.187 291.699C6.6 298.024 7.843 303.874 7.949 304.699C8.055 305.524 8.437 306.874 8.799 307.699C9.161 308.524 11.057 313.837 13.013 319.506C25.45 355.558 45.954 388.168 73.289 415.371C95.808 437.78 122.835 456.146 150.997 468.175C172.179 477.222 198.753 484.263 220.711 486.645C233.204 488.001 260.827 487.999 273.289 486.641C310.422 482.596 347.337 469.186 377.891 448.642C434.128 410.829 469.834 354.328 481.182 285.199C483.963 268.259 483.695 228.791 480.681 211.296C461.925 102.441 381.702 21.5328 273.755 2.60582C260.39 0.261816 224.621 -0.821182 211.261 0.713818ZM261.443 12.2198C275.524 13.7928 279.122 15.1038 279.946 18.9618C280.209 20.1918 280.886 29.2988 281.45 39.1988C282.459 56.9258 284.066 66.5078 290.671 94.1988C293.549 106.262 295.178 109.789 302.221 119.199C310.48 130.234 318.514 138.15 328.512 145.1C337.247 151.173 343.639 157.573 351.522 168.138C356.038 174.192 356.051 174.2 362.344 174.896C370.8 175.832 376.08 179.088 381.368 186.626C385.333 192.279 385.896 192.699 389.502 192.699C391.633 192.699 396.441 191.983 400.188 191.108C403.935 190.233 408.851 189.721 411.112 189.97C415.025 190.4 426.5 196.328 426.5 197.918C426.5 198.332 424.74 199.835 422.589 201.259C419.801 203.104 416.714 204.041 411.839 204.523C405.948 205.105 405 205.47 405 207.155C405 208.602 406.126 209.437 409.328 210.364C414.545 211.875 419.953 211.016 430 207.082C436.315 204.609 438.529 204.299 452.63 203.918L468.259 203.495L469.353 209.847C471.285 221.073 472.483 233.953 472.492 243.599L472.5 252.998L463.346 252.349C458.312 251.991 447.357 251.699 439.003 251.699H423.812L423.141 236.949C422.215 216.613 420.428 209.854 416.777 212.884C415.764 213.725 415.63 217.9 416.151 232.327L416.814 250.699H387.657C360.552 250.699 358.501 250.576 358.509 248.949C358.521 246.582 361.423 223.154 362.298 218.351L363 214.503L369.324 221.351C372.801 225.117 377.576 230.305 379.934 232.879C386.199 239.717 393.5 243.79 393.5 240.446C393.5 239.757 390.402 235.749 386.616 231.54C382.831 227.33 377.374 219.682 374.49 214.543C367.145 201.453 362.992 196.071 357.958 193.122C354.443 191.061 353.215 190.781 351.565 191.664C348.386 193.366 348.004 197.128 350.38 203.336C352.96 210.08 353.184 220.988 351.014 234.199C350.2 239.149 349.527 244.838 349.517 246.841C349.494 251.642 348.057 251.963 330.459 251.092L316.584 250.405L316.605 233.949C316.617 224.898 316.407 217.273 316.139 217.004C315.054 215.92 311.732 217.894 310.652 220.265C310.018 221.656 309.497 227.384 309.494 232.996C309.491 238.608 309.039 244.82 308.488 246.801L307.488 250.404L298.276 251.001C293.21 251.329 288.849 251.381 288.585 251.117C288.321 250.853 287.792 242.888 287.41 233.418C287.006 223.396 286.107 214.109 285.259 211.199C281.854 199.519 271.465 183.449 263.122 176.956C256.85 172.076 253.738 170.699 248.982 170.699C241.946 170.699 238.814 173.717 234.522 184.629C233.348 187.616 229.946 193.729 226.962 198.213C219.593 209.288 218.406 212.494 218.323 221.545C218.23 231.699 220.496 240.703 226.539 254.199C228.017 257.499 229.57 261.324 229.991 262.699C230.411 264.074 231.769 266.999 233.009 269.199C234.983 272.704 235.163 273.942 234.465 279.199C234.027 282.499 233.631 288.602 233.584 292.762C233.507 299.666 233.26 300.55 230.75 302.908L228 305.49L201.977 305.898L175.954 306.306L175.695 285.737C175.485 269.05 175.71 264.794 176.885 263.184C178.209 261.372 179.734 261.171 194.417 260.88C203.263 260.705 210.5 260.48 210.499 260.38C210.497 259.344 205.728 247.937 203.435 243.483C199.671 236.17 197.534 227.055 197.515 218.235C197.502 212.087 198.153 209.65 203.071 197.436C209.609 181.198 210.217 178.35 208.182 173.479C205.192 166.324 196.494 164.068 189.223 168.561C185.357 170.951 183.428 174.825 181.533 184.008C179.864 192.093 170.87 205.202 158.343 217.808C149.344 226.864 148.52 227.993 150.084 229.136C151.616 230.257 151.742 231.6 151.153 240.577C150.787 246.17 149.927 251.676 149.243 252.811C148.133 254.653 147.41 254.797 142.5 254.158C139.475 253.764 128.012 253.311 117.026 253.152C97.848 252.875 96.98 252.776 95.276 250.67C93.189 248.093 92.975 242.017 94.598 231.391C95.513 225.404 96.384 223.303 99.797 218.849C104.779 212.348 107.122 211.336 115.447 212.082C121.78 212.65 122.028 212.578 129.447 208.016C145.375 198.222 158.5 189.446 158.5 188.59C158.5 187.031 154.567 183.698 152.75 183.719C151.788 183.729 148.075 185.523 144.5 187.704C140.925 189.885 133.685 193.855 128.412 196.526C119.613 200.983 117.761 201.521 105.912 203.066L93 204.749L88.886 209.383L84.771 214.017L83.604 226.799C82.06 243.698 80.958 246.81 75.908 248.531C71.584 250.005 50.167 251.334 46.315 250.367C44.97 250.03 42.943 248.95 41.811 247.969C39.92 246.329 39.794 245.374 40.252 236.192C40.715 226.927 41.01 225.776 44.3 220.397C47.612 214.982 55.388 207.336 61.75 203.24C66.02 200.491 65.181 199.351 59.447 200.112C53.297 200.927 37.324 209.206 32.81 213.916L29.665 217.199L29.333 231.37C29.018 244.763 28.867 245.682 26.576 248.12C24.439 250.393 23.359 250.699 17.465 250.699H10.778L10.238 244.747C9.941 241.473 10.084 232.81 10.556 225.497C11.028 218.183 11.433 211.187 11.457 209.949C11.493 208.067 12.054 207.699 14.89 207.699C20.584 207.699 34.63 204.671 38.934 202.516C41.17 201.395 44.125 199.448 45.5 198.188C46.875 196.928 51.481 193.416 55.735 190.384C65.899 183.14 70.152 182.194 83.525 184.203C100.697 186.782 102.107 186.399 117.002 175.109C120.853 172.19 128.053 167.949 133.002 165.686C151.834 157.071 152.266 156.736 163.26 142.199C171.7 131.039 173.648 127.145 178.852 111.033C185.217 91.3228 188.348 69.3338 191.029 25.5238L191.682 14.8488L198.738 13.6588C217.604 10.4768 241.026 9.93882 261.443 12.2198ZM225.244 16.9028C219.148 18.5218 219.234 23.0688 225.535 32.4058C227.166 34.8218 228.5 37.1318 228.5 37.5378C228.5 37.9438 227.6 40.0408 226.5 42.1988C222.052 50.9228 225.693 59.6988 233.76 59.6988C237.297 59.6988 238.423 59.0938 242.183 55.1698C245.83 51.3628 246.83 50.8048 248.45 51.6718C251.438 53.2718 252.283 50.7518 249.512 48.5078C247.509 46.8858 247.357 46.3088 248.353 44.1228C249.945 40.6278 249.786 37.6988 248.003 37.6988C247.179 37.6988 245.942 39.0788 245.253 40.7658L244 43.8328L241.127 40.8328L238.254 37.8328L240.507 34.1868C245.209 26.5788 242.616 18.9368 234.574 16.7028C230.467 15.5618 230.279 15.5658 225.244 16.9028ZM236.143 27.2118C236.7 28.6608 234.973 31.6988 233.593 31.6988C233.229 31.6988 232.134 30.3488 231.159 28.6988L229.387 25.6988H232.475C234.309 25.6988 235.799 26.3128 236.143 27.2118ZM315.787 41.7098C321.821 46.4568 323.163 59.5598 318.541 68.6178C317.342 70.9688 316.504 73.0168 316.68 73.1688C316.856 73.3198 318.425 74.1688 320.167 75.0538C322.162 76.0688 323.727 77.8728 324.398 79.9318C326.42 86.1408 327.407 97.0998 326.554 103.872C325.687 110.755 325.016 112.699 323.508 112.699C321.832 112.699 321.164 108.114 321.082 96.0568C321.011 85.5928 320.737 83.6238 319.095 81.8068C316.97 79.4548 313.459 79.0828 310.549 80.8998C308.823 81.9788 308.685 82.9368 309.201 90.2558C309.819 99.0118 308.736 101.563 306.133 97.4808C305.333 96.2258 303.477 89.3488 302.009 82.1988C297.583 60.6458 298.627 45.5248 304.842 41.1718C307.803 39.0978 312.777 39.3418 315.787 41.7098ZM241.5 48.6938C241.5 49.9358 235.546 54.6988 233.995 54.6988C231.986 54.6988 229.5 51.8408 229.5 49.5318C229.5 48.4188 230.437 46.1918 231.582 44.5838L233.664 41.6608L237.582 44.7638C239.737 46.4708 241.5 48.2388 241.5 48.6938ZM167.511 46.2048C170.913 47.9638 174.88 54.3058 176.587 60.7138C177.845 65.4388 177.014 77.6848 175.545 76.0628C174.748 75.1828 173.153 70.7698 169.882 60.4018C168.877 57.2138 167.324 53.9448 166.431 53.1368C164.996 51.8378 164.522 51.8938 162.333 53.6158C159.438 55.8928 157.847 60.6408 156.927 69.7518L156.264 76.3048L160.351 81.0258C167.735 89.5578 169.481 101.261 164.885 111.419C160.418 121.294 157.999 122.672 152.806 118.303C147.079 113.484 142.682 100.199 146.814 100.199C148.005 100.199 149.723 102.239 151.814 106.138C153.566 109.404 155.534 112.244 156.186 112.45C158.165 113.073 160.595 108.177 161.195 102.361C161.743 97.0558 161.644 96.7638 158.305 93.8328C153.068 89.2338 148.245 75.6938 148.362 65.9148C148.455 58.1608 153.196 48.1678 157.713 46.2058C161.961 44.3598 163.943 44.3598 167.511 46.2048ZM307.244 47.4488C304.816 50.1618 304.097 57.9948 305.515 66.2858C306.212 70.3628 307.057 73.6958 307.391 73.6918C308.254 73.6818 312.762 66.9298 314.25 63.4188C318.238 54.0078 312.691 41.3628 307.244 47.4488ZM143.5 51.5638C143.5 54.4558 139.815 58.4578 135.195 60.5858C132.888 61.6478 129.741 63.5708 128.203 64.8578L125.406 67.1988L127.047 74.1988C127.95 78.0488 129.53 85.9238 130.559 91.6988C131.589 97.4738 133.573 107.149 134.968 113.199C137.526 124.286 137.519 129.699 134.946 129.699C132.809 129.699 130.613 124.541 129.541 117.008C129.009 113.263 127.247 104.574 125.626 97.6988C124.004 90.8238 122.38 83.1738 122.016 80.6988C120.709 71.8158 120.641 71.7638 116.551 76.5128C112.888 80.7658 112.875 80.7708 111.031 78.7328C109.409 76.9408 109.344 76.3548 110.505 73.9448C111.232 72.4348 111.729 70.2448 111.609 69.0798C111.458 67.6068 113.161 65.3898 117.196 61.8128C127.662 52.5318 143.5 46.3608 143.5 51.5638ZM213.9 60.0998C213.604 60.8708 213.843 64.1028 214.431 67.2838C215.019 70.4638 215.537 77.1458 215.582 82.1328C215.663 91.1698 215.668 91.1878 217.202 87.6988C218.404 84.9648 218.606 82.0968 218.125 74.5978C217.787 69.3168 217.226 63.5788 216.88 61.8478C216.219 58.5458 214.812 57.7208 213.9 60.0998ZM259.957 64.9488C259.694 65.6368 259.901 70.2488 260.418 75.1988C261.137 82.0768 261.003 86.6438 259.847 94.5678C258.644 102.825 258.556 106.575 259.419 112.986C261.039 125.018 261.923 125.072 262.916 113.199C263.284 108.799 264.241 102.359 265.042 98.8868C267.033 90.2678 266.928 86.9108 264.282 74.4498C262.134 64.3298 261.082 62.0198 259.957 64.9488ZM353.5 67.6018C359.7 71.9148 361.296 83.1858 357.39 95.0828C353.2 107.848 346.481 112.101 340.545 105.747C336.968 101.918 334.996 94.9448 335.016 86.1988C335.03 80.4388 335.523 78.3128 337.803 74.1988C341.013 68.4058 345.993 64.4338 348.979 65.2868C350.09 65.6038 352.125 66.6458 353.5 67.6018ZM343.975 75.3208C341.022 78.5058 340.055 83.1008 340.806 90.3748C341.363 95.7738 343.613 100.699 345.523 100.699C350.662 100.699 355.505 83.1038 352.525 75.2638C351.212 71.8118 347.202 71.8378 343.975 75.3208ZM384.513 86.2058C392.335 90.2508 389.804 107.004 377.607 131.92C371.805 143.772 366.944 151.699 365.477 151.699C364.916 151.699 363.962 150.611 363.356 149.282C362.413 147.212 362.757 146.028 365.759 141.032C367.686 137.824 369.998 133.745 370.897 131.969L372.531 128.739L368.765 127.154C360.261 123.575 360.273 123.568 356.647 133.115C354.854 137.836 353.052 141.699 352.643 141.699C351.083 141.699 349.501 139.196 349.515 136.749C349.523 135.347 351.307 128.916 353.48 122.458C360.934 100.308 367.947 89.0138 376 86.1888C381.075 84.4098 381.04 84.4098 384.513 86.2058ZM102.666 89.1658C107.268 92.2928 110.015 96.7408 111.963 104.217C114.744 114.895 113.558 127.619 108.922 136.824C105.666 143.29 101.959 144.382 95.925 140.653C85.316 134.096 78.871 106.185 84.998 93.3288C88.163 86.6868 96.223 84.7878 102.666 89.1658ZM374.141 95.7098C370.237 99.1368 361.48 118.094 363.078 119.656C363.585 120.151 366.379 121.488 369.286 122.627L374.572 124.698L376.382 120.448C380.678 110.367 383.924 97.6098 382.963 94.5818C382.065 91.7518 378.066 92.2628 374.141 95.7098ZM91.09 95.5998C89.964 96.8438 89.738 97.7278 90.435 98.1588C91.021 98.5208 91.5 99.4918 91.5 100.317C91.5 101.142 91.101 101.571 90.614 101.269C87.964 99.6318 87.827 113.906 90.426 120.747C92.72 126.783 97.012 132.699 99.097 132.699C99.923 132.699 101.685 130.352 103.036 127.449C108.682 115.323 103.906 93.6988 95.582 93.6988C94.058 93.6988 92.036 94.5538 91.09 95.5998ZM250.155 103.199C249.467 108.189 250.764 123.285 252.775 133.699C253.359 136.724 253.874 141.449 253.919 144.199C253.963 146.949 254.45 149.321 255 149.47C256.363 149.838 257.271 137.165 256.237 132.199C255.779 129.999 254.379 121.449 253.125 113.199C250.991 99.1638 250.8 98.5208 250.155 103.199ZM72.578 127.973C79.578 132.69 83.068 141.1 82.218 151.199C81.272 162.427 76.663 169.339 71.094 167.883C67.847 167.033 60.549 159.001 57.947 153.412C54.022 144.982 54.734 130.368 59.236 126.949C61.931 124.902 68.805 125.43 72.578 127.973ZM402.65 126.779C405.296 128.195 407.5 133.612 407.5 138.698C407.5 146.807 400.879 162.094 395.976 165.307C392.005 167.909 386.911 168.675 384.555 167.025C382.534 165.609 381.708 162.699 383.327 162.699C383.782 162.699 384.708 159.661 385.384 155.949C386.752 148.441 392.968 129.045 394.659 127.008C395.977 125.42 399.9 125.308 402.65 126.779ZM397.622 132.954C395.67 139.101 391.714 154.207 391.03 158.123L390.344 162.046L392.672 160.506C393.952 159.658 396.452 156.553 398.226 153.606C403.717 144.483 404.851 133.028 400.494 130.696C398.938 129.863 398.491 130.215 397.622 132.954ZM63.365 132.44C60.944 132.975 60.437 137.558 61.981 144.94C64.371 156.36 68.306 161.862 72.84 160.122C76.062 158.886 77.533 148.081 75.361 141.598C73.361 135.626 67.88 131.442 63.365 132.44ZM436.447 142.359C441.475 148.751 445.464 172.199 441.524 172.199C439.801 172.199 439.153 170.223 437.098 158.699C435.878 151.86 435.071 149.757 432.968 147.935C429.768 145.161 428.856 145.628 428.044 150.454C427.595 153.121 428.146 156.438 429.957 161.98C432.859 170.86 433.089 174.354 431.085 179.151C428.012 186.505 420.918 186 412.435 177.823C407.125 172.706 406.295 170.216 409.554 169.182C410.995 168.724 413.161 169.599 416.813 172.114C419.675 174.086 422.576 175.699 423.259 175.699C424.976 175.699 424.838 168.221 423.029 163.199C420.119 155.123 421.76 143.387 426.156 140.832C429.626 138.815 434.192 139.493 436.447 142.359ZM42.619 147.449C43.207 148.961 43.489 153.461 43.245 157.449L42.8 164.699H46.549C50.471 164.699 60.29 169.243 64.138 172.839C66.358 174.914 66.297 178.456 64.026 179.327C63.369 179.58 60.485 178.208 57.619 176.279C52.387 172.758 46.767 170.999 44.066 172.035C41.609 172.978 39.329 177.425 39 181.916C38.828 184.271 38.645 186.762 38.593 187.449C38.542 188.137 37.642 188.699 36.593 188.699C35.169 188.699 33.927 186.864 31.685 181.449C27.161 170.526 26.484 167.048 27.45 159.699C28.933 148.412 31.47 144.699 37.699 144.699C40.974 144.699 41.709 145.11 42.619 147.449ZM34.413 151.304C32.842 153.197 31.901 164.809 33.14 167.014C33.898 168.361 34.238 168.369 35.994 167.082C37.633 165.882 38.053 164.202 38.35 157.66C38.647 151.127 38.446 149.699 37.228 149.699C36.412 149.699 35.146 150.421 34.413 151.304ZM288.025 171.949C289.075 178.312 293.334 191.357 296.758 198.699C298.426 202.274 300.847 208.799 302.139 213.199L304.488 221.199L304.117 209.199C303.842 200.315 303.209 195.706 301.677 191.449C300.539 188.286 300.052 185.699 300.594 185.699C302.462 185.699 336.003 218.83 338.135 222.782C339.817 225.899 340.408 226.381 340.919 225.05C341.843 222.642 336.852 213.273 331.444 207.263C328.938 204.478 324.816 199.499 322.284 196.199C313.782 185.118 293.902 167.699 289.758 167.699C287.451 167.699 287.361 167.921 288.025 171.949ZM337.134 171.482C335.892 173.492 344.468 179.856 354.693 184.514C360.547 187.18 366.386 190.034 367.668 190.855C368.951 191.677 370.702 192.606 371.561 192.92C372.419 193.234 373.661 195.294 374.322 197.498C375.629 201.86 378.941 206.584 379.973 205.557C380.327 205.204 379.916 203.237 379.059 201.185C377.076 196.439 377.048 196.536 380.004 197.883C381.382 198.51 382.777 198.756 383.104 198.428C384.267 197.266 382.247 195.562 376.908 193.201C373.934 191.885 371.5 190.351 371.5 189.791C371.5 187.959 359.312 180.447 350.564 176.887C345.854 174.97 341.029 172.769 339.843 171.996C338.656 171.223 337.437 170.992 337.134 171.482ZM201.003 175.709C201.435 177.068 200.5 179.544 198.119 183.35C196.182 186.447 192.99 193.08 191.025 198.09C189.06 203.1 186.787 208.075 185.972 209.146C184.511 211.067 184.429 211.063 179.806 208.817L175.122 206.541L178.281 204.541C184.485 200.613 191.5 187.103 191.5 179.084C191.5 175.709 193.541 173.699 196.968 173.699C199.493 173.699 200.529 174.215 201.003 175.709ZM106.414 187.213C99.613 189.892 95.484 190.797 86.547 191.565C75.714 192.496 72.608 193.447 73.85 195.457C74.711 196.85 95.982 197.84 99.247 196.639C102.63 195.395 117.454 185.485 117.481 184.449C117.514 183.162 115.283 183.719 106.414 187.213ZM128.5 185.788C126.346 187.55 126.304 187.685 128.194 186.761C129.401 186.171 130.665 185.241 131.003 184.694C131.906 183.233 131.3 183.498 128.5 185.788ZM276.231 215.449C276.654 216.961 277 223.824 277 230.699C277 241.199 276.68 243.839 275 247.199C273.194 250.811 272.589 251.229 268.764 251.506C264.679 251.802 264.419 251.641 261.476 247.006C258.507 242.33 258.429 241.899 258.618 231.199C258.895 215.478 260.55 212.699 269.636 212.699C275.138 212.699 275.505 212.852 276.231 215.449ZM231.801 230.945C232.333 236.466 232.276 236.649 230.343 235.615C225.312 232.923 223.597 220.358 227.667 216.016L230 213.527L230.623 219.363C230.966 222.573 231.496 227.785 231.801 230.945ZM191.5 249.619L197 252.799L190.5 252.147C181.552 251.25 175.504 247.537 175.502 242.939L175.5 239.679L180.75 243.059C183.637 244.919 188.475 247.871 191.5 249.619ZM211.571 245.699C211.524 248.721 212.472 252.251 214.458 256.449C217.462 262.798 218.804 263.954 219.889 261.127C220.578 259.333 219.253 256.462 215.851 252.372C214.558 250.818 213.468 248.568 213.43 247.372C213.391 246.177 212.973 244.299 212.5 243.199C211.844 241.673 211.624 242.267 211.571 245.699ZM25.75 264.5L28.5 267.073V284.212C28.5 301.039 28.456 301.392 26.085 303.619C22.448 307.036 19.931 305.703 18.114 299.4C15.891 291.688 12.682 275.151 11.896 267.359L11.205 260.518L17.103 261.223C21.424 261.739 23.735 262.614 25.75 264.5ZM470.299 262.985C472.35 265.168 472.4 265.697 471.419 274.735C470.468 283.485 466.098 307.434 465.308 308.225C465.118 308.414 457.624 308.661 448.655 308.772C435.791 308.932 432.096 308.682 431.157 307.587C430.287 306.573 430.106 301.213 430.483 287.699L431 269.199L434.417 264.949L437.835 260.699H452.993C467.491 260.699 468.245 260.799 470.299 262.985ZM79.576 264.277C81.891 266.738 82.014 267.548 82.32 282.26L82.64 297.666L79.32 301.665L76 305.663L60.202 305.681C38.969 305.705 40.056 306.924 39.699 282.696C39.365 260.085 37.762 261.699 60.548 261.699C77.098 261.699 77.159 261.707 79.576 264.277ZM148.78 264.469C151.363 267.166 151.448 267.654 151.951 282.719L152.467 298.199L147.233 301.712L142 305.226L122.577 305.171L103.155 305.116L99.104 300.337L95.053 295.558L94.736 282.379L94.419 269.199L97.421 265.976L100.424 262.753L115.212 262.447C123.345 262.279 133.628 262.042 138.063 261.92C145.703 261.711 146.265 261.844 148.78 264.469ZM303.261 262.301C305.786 262.806 306.371 263.492 306.886 266.551C307.413 269.683 307.123 270.505 304.84 272.364L302.18 274.529L290.771 268.864L279.361 263.199L284.181 262.606C291.174 261.746 299.795 261.608 303.261 262.301ZM358.526 265.412L363.5 269.126V275.759C363.5 279.407 363.778 286.398 364.117 291.295L364.734 300.199L361.574 302.031L358.415 303.862L348.708 298.391C343.368 295.382 334.341 290.593 328.647 287.749L318.294 282.577L318.659 274.534C319.001 267.001 319.214 266.338 322.012 264.099C324.848 261.831 325.726 261.709 339.276 261.704L353.552 261.699L358.526 265.412ZM416.146 265.8L420.5 268.795V285.544V302.293L416.561 306.14L412.621 309.987L395.843 309.833L379.065 309.68L375.282 305.986L371.5 302.293V285.863V269.432L375.25 265.472L379 261.512L395.396 262.158C411.5 262.792 411.87 262.857 416.146 265.8ZM219.264 271.949C219.837 278.345 221.506 280.748 221.486 275.149C221.47 270.543 220.581 266.699 219.53 266.699C219.125 266.699 219.005 269.062 219.264 271.949ZM296.28 302.712C301.934 305.055 306.434 307.073 306.28 307.198C306.126 307.322 297.359 307.722 286.798 308.086C264.188 308.866 265.36 309.498 266.219 296.974L266.777 288.82L276.389 293.636C281.675 296.285 290.626 300.369 296.28 302.712ZM80.881 325.132C83.481 328.54 83.5 328.698 83.5 346.445V364.325L80.75 366.822L78 369.319L63.059 368.259L48.117 367.199L44.319 361.199L40.521 355.199L40.533 341.199C40.543 329.463 40.824 326.843 42.272 324.995C44.204 322.531 46.798 322.199 66.631 321.884L78.263 321.699L80.881 325.132ZM148.808 325.392L152.01 328.189L151.973 344.959L151.936 361.73L148.468 365.134L145 368.537L122.221 368.868L99.443 369.199L96.885 365.931C94.424 362.787 94.306 362.003 93.761 345.145L93.195 327.627L95.868 324.837L98.541 322.046L122.074 322.321L145.607 322.595L148.808 325.392ZM210.536 323.355C223.378 323.947 224.241 324.119 227.347 326.712L230.62 329.445L231.207 343.921L231.793 358.396L227.527 364.048L223.26 369.699H203.086H182.912L179.14 365.719L175.369 361.738L176.071 345.969L176.773 330.199L180.887 325.914L185 321.629L191 322.18C194.3 322.483 203.091 323.012 210.536 323.355ZM305.544 326.819C306.757 328.378 307.14 332.143 307.334 344.39C307.576 359.693 307.534 360.043 305.007 363.689L302.434 367.402L292.717 368.045C275.376 369.194 269.566 368.903 266.019 366.711L262.802 364.722L262.951 349.332L263.1 333.942L266.813 329.07L270.527 324.199L287.263 324.517C302.561 324.807 304.133 325.005 305.544 326.819ZM354.613 328.4L364.5 333.102L364.491 343.15C364.476 360.316 363.914 362.736 359.164 366.093L355.069 368.987L340.047 368.309L325.025 367.631L321.763 364.469L318.5 361.307V343.503V325.699H330.441C337.323 325.699 342.644 325.275 343 324.699C343.88 323.274 343.737 323.229 354.613 328.4ZM417.035 326.314C418.867 327.514 419.5 328.815 419.5 331.381C419.5 334.501 419.283 334.767 417.25 334.139C416.013 333.757 411.897 331.742 408.105 329.66C402.209 326.424 401.557 325.811 403.605 325.424C409.027 324.4 414.686 324.775 417.035 326.314ZM457.9 331.449C454.211 341.368 449.634 350.924 448.762 350.527C448.343 350.337 444.288 348.268 439.75 345.929L431.5 341.677V335.76C431.5 330.278 431.738 329.656 434.75 327.283C437.796 324.882 438.702 324.72 449.205 324.71L460.41 324.699L457.9 331.449ZM396.5 351.927C420.766 366.726 421.435 367.155 421.468 367.949C421.486 368.362 412.388 368.68 401.25 368.656L381 368.614L377.24 363.736L373.48 358.858L374.139 348.79L374.799 338.721L377.9 340.598C379.605 341.63 387.975 346.729 396.5 351.927ZM361.576 383.401C362.001 383.84 362.469 392.807 362.617 403.328C362.862 420.799 362.726 422.616 361.04 424.302C359.355 425.987 357.584 426.12 340.597 425.837C325.422 425.585 321.678 425.239 320.25 423.958C318.7 422.568 318.5 420.22 318.5 403.4V384.411L322.167 381.241L325.834 378.071L343.319 380.337C352.936 381.583 361.151 382.962 361.576 383.401ZM416.922 381.879C420.071 385.558 420.5 386.708 420.5 391.475V396.89L405.648 411.682C391.243 426.03 390.656 426.485 386.121 426.846C381.768 427.192 381.169 426.937 377.472 423.171L373.5 419.123V402.107V385.091L376.767 381.925L380.034 378.758L394.017 378.448C401.708 378.277 409.202 378.039 410.672 377.918C412.713 377.751 414.189 378.686 416.922 381.879ZM79.25 382.066L82.5 385.412V397.268V409.124L77.411 404.161C72.675 399.543 56.5 380.209 56.5 379.166C56.5 378.909 60.887 378.704 66.25 378.71C75.987 378.72 76.004 378.725 79.25 382.066ZM135.287 379.811C146.541 380.91 146.72 380.968 150.063 384.561L153.446 388.199L153.473 403.876C153.509 424.746 155.649 423.168 126.113 424.053C113.724 424.425 103.002 424.953 102.288 425.227C101.573 425.501 99.303 424.337 97.244 422.64L93.5 419.553V401.931V384.308L96.187 381.504C98.851 378.723 98.983 378.699 111.384 378.699C118.265 378.699 129.021 379.2 135.287 379.811ZM216.397 379.761L223 379.823L226.233 384.257L229.466 388.692L228.834 404.013C227.961 425.174 228.655 424.43 209.5 424.737C201.525 424.865 191.85 424.901 188 424.816L181 424.663L177.848 419.841C174.756 415.11 174.713 414.879 175.554 407.609C176.026 403.534 176.432 397.077 176.456 393.261C176.491 387.758 176.964 385.645 178.745 383.046C180.94 379.844 181.182 379.761 189.495 379.383C194.173 379.171 200.654 379.155 203.897 379.348C207.14 379.541 212.765 379.727 216.397 379.761ZM303.463 385.267L307.667 390.834L306.952 406.205C305.967 427.394 307.116 426.416 282.715 426.852L264.43 427.178L261.401 422.522L258.372 417.865L259.083 403.235C259.773 389.047 259.883 388.492 262.729 384.901C264.343 382.865 266.414 380.893 267.331 380.519C268.249 380.145 275.808 379.808 284.13 379.769L299.26 379.699L303.463 385.267ZM224.997 439.863L228.602 443.468L227.905 459.969L227.209 476.47L223.104 476.006C209.894 474.515 181.548 468.645 178.749 466.821C178.224 466.479 177.542 461.844 177.232 456.521L176.669 446.842L182.632 441.154L188.595 435.466L204.994 435.862L221.393 436.258L224.997 439.863ZM148.884 438.855C151.324 440.04 153.811 442.087 154.41 443.402C155.905 446.681 155.845 457.699 154.333 457.699C151.655 457.699 117.5 438.701 117.5 437.211C117.5 436.93 123.563 436.699 130.973 436.699C142.732 436.699 145.011 436.973 148.884 438.855ZM303.618 439.952C304.987 441.686 305.161 444.083 304.75 455.599C304.483 463.079 303.98 469.495 303.632 469.857C302.127 471.425 270.044 476.699 262.014 476.699H258.976L259.012 460.41L259.047 444.121L262.524 440.367L266 436.614L284 437.259C300.524 437.851 302.133 438.072 303.618 439.952ZM362.07 440.12C362.404 441.451 362.525 443.319 362.339 444.27C361.91 446.457 346.677 454.652 331.5 460.86L320 465.563L319.407 454.381C318.96 445.948 319.151 442.523 320.183 440.449L321.551 437.699H341.507H361.462L362.07 440.12Z" fill="black"/>
</svg>
