<svg width="40" height="38" viewBox="0 0 40 38" fill="none" xmlns="http://www.w3.org/2000/svg">
<path d="M17.7228 1.38193C18.3215 -0.460691 20.9283 -0.460687 21.527 1.38193L24.7887 11.4204C25.0564 12.2445 25.8244 12.8024 26.6908 12.8024H37.2459C39.1834 12.8024 39.9889 15.2816 38.4215 16.4204L29.8822 22.6246C29.1813 23.1339 28.8879 24.0366 29.1557 24.8606L32.4174 34.8992C33.0161 36.7418 30.9071 38.274 29.3397 37.1352L20.8004 30.9311C20.0995 30.4218 19.1503 30.4218 18.4493 30.9311L9.91004 37.1352C8.34261 38.274 6.23366 36.7418 6.83236 34.8992L10.0941 24.8606C10.3618 24.0366 10.0685 23.1339 9.36753 22.6246L0.828259 16.4204C-0.739169 15.2816 0.0663857 12.8024 2.00383 12.8024H12.5589C13.4254 12.8024 14.1933 12.2445 14.4611 11.4204L17.7228 1.38193Z" fill="#F59E0B"/>
</svg>
